<!-- Modern Abstract Background -->
<svg width="1920" height="1080" viewBox="0 0 1920 1080" xmlns="http://www.w3.org/2000/svg">
  <defs>
    <linearGradient id="modernGradient" x1="0%" y1="0%" x2="100%" y2="100%">
      <stop offset="0%" style="stop-color:#1E293B;stop-opacity:1" />
      <stop offset="50%" style="stop-color:#334155;stop-opacity:1" />
      <stop offset="100%" style="stop-color:#0F172A;stop-opacity:1" />
    </linearGradient>
    
    <radialGradient id="glowGradient" cx="50%" cy="50%" r="50%">
      <stop offset="0%" style="stop-color:#3B82F6;stop-opacity:0.3" />
      <stop offset="100%" style="stop-color:#8B5CF6;stop-opacity:0.1" />
    </radialGradient>
    
    <linearGradient id="accentGradient" x1="0%" y1="0%" x2="100%" y2="0%">
      <stop offset="0%" style="stop-color:#3B82F6;stop-opacity:0.8" />
      <stop offset="50%" style="stop-color:#8B5CF6;stop-opacity:0.6" />
      <stop offset="100%" style="stop-color:#EC4899;stop-opacity:0.4" />
    </linearGradient>
  </defs>
  
  <!-- Main Background -->
  <rect width="1920" height="1080" fill="url(#modernGradient)"/>
  
  <!-- Glow Effect -->
  <circle cx="960" cy="540" r="400" fill="url(#glowGradient)"/>
  
  <!-- Abstract Geometric Shapes -->
  <!-- Large floating circles -->
  <circle cx="200" cy="200" r="80" fill="#3B82F6" opacity="0.1"/>
  <circle cx="1720" cy="300" r="120" fill="#8B5CF6" opacity="0.08"/>
  <circle cx="300" cy="800" r="60" fill="#EC4899" opacity="0.12"/>
  <circle cx="1600" cy="700" r="90" fill="#10B981" opacity="0.1"/>
  
  <!-- Floating rectangles -->
  <rect x="100" y="150" width="120" height="80" fill="#3B82F6" opacity="0.05" rx="20"/>
  <rect x="1500" y="200" width="100" height="60" fill="#8B5CF6" opacity="0.08" rx="15"/>
  <rect x="200" y="600" width="80" height="100" fill="#EC4899" opacity="0.06" rx="10"/>
  <rect x="1400" y="500" width="140" height="70" fill="#10B981" opacity="0.07" rx="25"/>
  
  <!-- Grid Pattern Overlay -->
  <defs>
    <pattern id="grid" width="100" height="100" patternUnits="userSpaceOnUse">
      <path d="M 100 0 L 0 0 0 100" fill="none" stroke="#3B82F6" stroke-width="0.5" opacity="0.1"/>
    </pattern>
  </defs>
  <rect width="1920" height="1080" fill="url(#grid)"/>
  
  <!-- Accent Lines -->
  <line x1="0" y1="300" x2="1920" y2="300" stroke="url(#accentGradient)" stroke-width="2" opacity="0.3"/>
  <line x1="0" y1="600" x2="1920" y2="600" stroke="url(#accentGradient)" stroke-width="1" opacity="0.2"/>
  <line x1="0" y1="900" x2="1920" y2="900" stroke="url(#accentGradient)" stroke-width="1.5" opacity="0.25"/>
  
  <!-- Corner Accents -->
  <circle cx="50" cy="50" r="30" fill="#3B82F6" opacity="0.2"/>
  <circle cx="1870" cy="50" r="25" fill="#8B5CF6" opacity="0.15"/>
  <circle cx="50" cy="1030" r="35" fill="#EC4899" opacity="0.18"/>
  <circle cx="1870" cy="1030" r="40" fill="#10B981" opacity="0.2"/>
  
  <!-- Floating Particles -->
  <circle cx="400" cy="400" r="3" fill="#3B82F6" opacity="0.6"/>
  <circle cx="800" cy="200" r="2" fill="#8B5CF6" opacity="0.7"/>
  <circle cx="1200" cy="600" r="4" fill="#EC4899" opacity="0.5"/>
  <circle cx="600" cy="800" r="2" fill="#10B981" opacity="0.8"/>
  <circle cx="1400" cy="400" r="3" fill="#3B82F6" opacity="0.6"/>
  <circle cx="200" cy="600" r="2" fill="#8B5CF6" opacity="0.7"/>
  <circle cx="1600" cy="200" r="4" fill="#EC4899" opacity="0.5"/>
  <circle cx="1000" cy="700" r="2" fill="#10B981" opacity="0.8"/>
</svg>
